<svg width="500" height="140" viewBox="0 0 500 140" fill="none" xmlns="http://www.w3.org/2000/svg">
<g clip-path="url(#clip0_2_252)">
<path d="M216.459 75.8061H193.325L188.888 87.8821H183.505L202.055 37.6868H207.802L226.28 87.8821H220.896L216.459 75.8061ZM214.931 71.5868L204.892 44.0885L194.853 71.5868H214.931Z" fill="#2178A9"/>
<path d="M239.472 56.892C240.733 54.2246 242.721 52.0179 245.437 50.272C248.201 48.4776 251.475 47.5804 255.258 47.5804C258.847 47.5804 262.072 48.4291 264.933 50.1265C267.843 51.7754 270.098 54.1518 271.699 57.2557C273.348 60.311 274.172 63.8756 274.172 67.9495C274.172 72.0233 273.348 75.6121 271.699 78.716C270.098 81.8198 267.843 84.2205 264.933 85.9179C262.072 87.6153 258.847 88.464 255.258 88.464C251.524 88.464 248.274 87.5911 245.51 85.8452C242.745 84.0507 240.733 81.8198 239.472 79.1525V106.651H234.452V48.1623H239.472V56.892ZM269.007 67.9495C269.007 64.6516 268.352 61.8145 267.043 59.4381C265.782 57.0132 264.036 55.1703 261.805 53.9093C259.574 52.6484 257.052 52.0179 254.239 52.0179C251.524 52.0179 249.026 52.6726 246.746 53.9821C244.516 55.2915 242.745 57.1587 241.436 59.5836C240.127 62.0085 239.472 64.8213 239.472 68.0222C239.472 71.2231 240.127 74.0359 241.436 76.4608C242.745 78.8857 244.516 80.7529 246.746 82.0623C249.026 83.3718 251.524 84.0265 254.239 84.0265C257.052 84.0265 259.574 83.396 261.805 82.1351C264.036 80.8256 265.782 78.9585 267.043 76.5336C268.352 74.0602 269.007 71.1988 269.007 67.9495Z" fill="#2178A9"/>
<path d="M288.634 34.0495V87.8821H283.542V34.0495H288.634Z" fill="#2178A9"/>
<path d="M302.712 40.6694C301.694 40.6694 300.821 40.3057 300.093 39.5782C299.366 38.8508 299.002 37.9535 299.002 36.8866C299.002 35.8196 299.366 34.9467 300.093 34.2677C300.821 33.5402 301.694 33.1765 302.712 33.1765C303.73 33.1765 304.603 33.5402 305.331 34.2677C306.058 34.9467 306.422 35.8196 306.422 36.8866C306.422 37.9535 306.058 38.8508 305.331 39.5782C304.603 40.3057 303.73 40.6694 302.712 40.6694ZM305.258 48.1623V87.8821H300.166V48.1623H305.258Z" fill="#2178A9"/>
<path d="M314.462 68.0222C314.462 63.8999 315.286 60.311 316.935 57.2557C318.584 54.1518 320.863 51.7754 323.773 50.1265C326.683 48.4291 330.005 47.5804 333.74 47.5804C338.638 47.5804 342.663 48.7928 345.816 51.2177C349.016 53.6426 351.078 56.9404 351.999 61.1113H346.543C345.864 58.2499 344.385 56.019 342.106 54.4186C339.875 52.7696 337.086 51.9452 333.74 51.9452C331.072 51.9452 328.672 52.5514 326.538 53.7638C324.404 54.9763 322.706 56.795 321.445 59.2198C320.233 61.5962 319.627 64.5304 319.627 68.0222C319.627 71.514 320.233 74.4724 321.445 76.8973C322.706 79.3222 324.404 81.1409 326.538 82.3533C328.672 83.5658 331.072 84.172 333.74 84.172C337.086 84.172 339.875 83.3718 342.106 81.7713C344.385 80.1224 345.864 77.843 346.543 74.9331H351.999C351.078 79.007 349.016 82.2806 345.816 84.754C342.615 87.2273 338.589 88.464 333.74 88.464C330.005 88.464 326.683 87.6396 323.773 85.9906C320.863 84.2932 318.584 81.9168 316.935 78.8615C315.286 75.7576 314.462 72.1445 314.462 68.0222Z" fill="#2178A9"/>
<path d="M359.076 67.9495C359.076 63.8756 359.876 60.311 361.477 57.2557C363.126 54.1518 365.381 51.7754 368.242 50.1265C371.152 48.4291 374.426 47.5804 378.063 47.5804C381.846 47.5804 385.095 48.4533 387.811 50.1993C390.575 51.9452 392.564 54.1761 393.776 56.892V48.1623H398.868V87.8821H393.776V79.0797C392.515 81.7956 390.503 84.0507 387.738 85.8452C385.022 87.5911 381.773 88.464 377.99 88.464C374.401 88.464 371.152 87.6153 368.242 85.9179C365.381 84.2205 363.126 81.8198 361.477 78.716C359.876 75.6121 359.076 72.0233 359.076 67.9495ZM393.776 68.0222C393.776 64.8213 393.121 62.0085 391.812 59.5836C390.503 57.1587 388.708 55.2915 386.429 53.9821C384.198 52.6726 381.724 52.0179 379.009 52.0179C376.196 52.0179 373.674 52.6484 371.443 53.9093C369.212 55.1703 367.442 57.0132 366.132 59.4381C364.871 61.8145 364.241 64.6516 364.241 67.9495C364.241 71.1988 364.871 74.0602 366.132 76.5336C367.442 78.9585 369.212 80.8256 371.443 82.1351C373.674 83.396 376.196 84.0265 379.009 84.0265C381.724 84.0265 384.198 83.3718 386.429 82.0623C388.708 80.7529 390.503 78.8857 391.812 76.4608C393.121 74.0359 393.776 71.2231 393.776 68.0222Z" fill="#2178A9"/>
<path d="M428.317 36.8139C433.7 36.8139 438.404 37.8808 442.43 40.0147C446.455 42.1486 449.559 45.1555 451.741 49.0353C453.972 52.8666 455.087 57.3042 455.087 62.348C455.087 67.3432 453.972 71.7808 451.741 75.6606C449.559 79.5404 446.431 82.5473 442.357 84.6812C438.331 86.8151 433.651 87.8821 428.317 87.8821H409.184V36.8139H428.317ZM427.516 77.1155C432.221 77.1155 435.882 75.8304 438.501 73.26C441.12 70.6896 442.43 67.0522 442.43 62.348C442.43 57.6437 441.12 53.9821 438.501 51.3632C435.882 48.7443 432.221 47.4349 427.516 47.4349H421.624V77.1155H427.516Z" fill="#2178A9"/>
<path d="M480.517 88.3913C476.783 88.3913 473.436 87.7851 470.478 86.5726C467.52 85.3602 465.143 83.5658 463.349 81.1894C461.603 78.813 460.681 75.9516 460.584 72.6052H473.824C474.018 74.4967 474.673 75.9516 475.788 76.9701C476.904 77.94 478.359 78.425 480.153 78.425C481.996 78.425 483.451 78.0128 484.518 77.1883C485.585 76.3153 486.118 75.1271 486.118 73.6237C486.118 72.3628 485.682 71.3201 484.809 70.4956C483.985 69.6711 482.942 68.9922 481.681 68.4587C480.468 67.9252 478.723 67.319 476.443 66.64C473.145 65.6216 470.454 64.6031 468.368 63.5847C466.283 62.5662 464.488 61.0628 462.985 59.0744C461.482 57.0859 460.73 54.4913 460.73 51.2905C460.73 46.5377 462.452 42.8276 465.895 40.1602C469.338 37.4443 473.824 36.0864 479.353 36.0864C484.979 36.0864 489.513 37.4443 492.957 40.1602C496.4 42.8276 498.243 46.5619 498.485 51.3632H485.027C484.93 49.7143 484.324 48.4291 483.209 47.5076C482.093 46.5377 480.662 46.0527 478.917 46.0527C477.413 46.0527 476.201 46.4649 475.279 47.2894C474.358 48.0653 473.897 49.205 473.897 50.7085C473.897 52.3574 474.673 53.6426 476.225 54.5641C477.777 55.4855 480.202 56.4797 483.5 57.5467C486.797 58.6621 489.465 59.7291 491.502 60.7475C493.587 61.766 495.382 63.2452 496.885 65.1851C498.388 67.125 499.14 69.6226 499.14 72.678C499.14 75.5879 498.388 78.231 496.885 80.6074C495.43 82.9838 493.296 84.8752 490.483 86.2816C487.67 87.6881 484.348 88.3913 480.517 88.3913Z" fill="#2178A9"/>
<path fill-rule="evenodd" clip-rule="evenodd" d="M70 0L0 70L70 140L140 70L70 0ZM12.7762 69.7303H69.8006H126.825L69.8006 12.7059L12.7762 69.7303Z" fill="#2CA0E1"/>
<path opacity="0.5" fill-rule="evenodd" clip-rule="evenodd" d="M126.825 69.8005H69.8006H12.7762L69.8006 126.825L126.825 69.8005Z" fill="#787878"/>
<path fill-rule="evenodd" clip-rule="evenodd" d="M69.8006 126.825L69.8006 69.8003L12.7762 69.8003L69.8006 126.825Z" fill="#2178A9"/>
<path fill-rule="evenodd" clip-rule="evenodd" d="M69.8006 69.8003L69.8006 126.825L126.825 69.8003H69.8006Z" fill="#195A7F"/>
</g>
<defs>
<clipPath id="clip0_2_252">
<rect width="499.14" height="140" fill="white"/>
</clipPath>
</defs>
</svg>
