<svg width="499" height="140" viewBox="0 0 499 140" fill="none" xmlns="http://www.w3.org/2000/svg">
<g clip-path="url(#clip0_1_176)">
<path d="M216.343 75.8061H193.222L188.787 87.8821H183.406L201.947 37.6868H207.691L226.159 87.8821H220.778L216.343 75.8061ZM214.816 71.5868L204.783 44.0885L194.749 71.5868H214.816Z" fill="#787878"/>
<path d="M239.344 56.8919C240.604 54.2246 242.591 52.0179 245.306 50.272C248.069 48.4776 251.341 47.5804 255.121 47.5804C258.708 47.5804 261.932 48.4291 264.792 50.1265C267.7 51.7754 269.954 54.1518 271.553 57.2557C273.201 60.311 274.025 63.8756 274.025 67.9495C274.025 72.0233 273.201 75.6121 271.553 78.716C269.954 81.8198 267.7 84.2205 264.792 85.9179C261.932 87.6153 258.708 88.464 255.121 88.464C251.389 88.464 248.141 87.5911 245.379 85.8451C242.616 84.0507 240.604 81.8198 239.344 79.1524V106.651H234.327V48.1623H239.344V56.8919ZM268.863 67.9495C268.863 64.6516 268.209 61.8145 266.9 59.4381C265.64 57.0132 263.895 55.1703 261.665 53.9093C259.435 52.6484 256.915 52.0179 254.103 52.0179C251.389 52.0179 248.893 52.6726 246.615 53.9821C244.385 55.2915 242.616 57.1587 241.307 59.5836C239.998 62.0085 239.344 64.8213 239.344 68.0222C239.344 71.2231 239.998 74.0359 241.307 76.4608C242.616 78.8857 244.385 80.7529 246.615 82.0623C248.893 83.3718 251.389 84.0265 254.103 84.0265C256.915 84.0265 259.435 83.396 261.665 82.1351C263.895 80.8256 265.64 78.9585 266.9 76.5336C268.209 74.0602 268.863 71.1988 268.863 67.9495Z" fill="#787878"/>
<path d="M288.48 34.0495V87.8821H283.391V34.0495H288.48Z" fill="#787878"/>
<path d="M302.55 40.6694C301.532 40.6694 300.66 40.3057 299.933 39.5782C299.206 38.8508 298.842 37.9535 298.842 36.8866C298.842 35.8196 299.206 34.9467 299.933 34.2677C300.66 33.5402 301.532 33.1765 302.55 33.1765C303.568 33.1765 304.441 33.5402 305.168 34.2677C305.895 34.9467 306.258 35.8196 306.258 36.8866C306.258 37.9535 305.895 38.8508 305.168 39.5782C304.441 40.3057 303.568 40.6694 302.55 40.6694ZM305.095 48.1623V87.8821H300.005V48.1623H305.095Z" fill="#787878"/>
<path d="M314.294 68.0222C314.294 63.8999 315.118 60.311 316.766 57.2557C318.414 54.1518 320.692 51.7754 323.6 50.1265C326.509 48.4291 329.829 47.5804 333.561 47.5804C338.457 47.5804 342.48 48.7928 345.631 51.2177C348.83 53.6426 350.89 56.9404 351.811 61.1113H346.358C345.679 58.2499 344.201 56.019 341.923 54.4186C339.693 52.7696 336.906 51.9452 333.561 51.9452C330.895 51.9452 328.496 52.5514 326.363 53.7638C324.23 54.9763 322.534 56.795 321.274 59.2198C320.062 61.5962 319.456 64.5304 319.456 68.0222C319.456 71.514 320.062 74.4724 321.274 76.8973C322.534 79.3222 324.23 81.1409 326.363 82.3533C328.496 83.5658 330.895 84.172 333.561 84.172C336.906 84.172 339.693 83.3718 341.923 81.7713C344.201 80.1224 345.679 77.843 346.358 74.9331H351.811C350.89 79.007 348.83 82.2806 345.631 84.7539C342.432 87.2273 338.408 88.464 333.561 88.464C329.829 88.464 326.509 87.6396 323.6 85.9906C320.692 84.2932 318.414 81.9168 316.766 78.8615C315.118 75.7576 314.294 72.1445 314.294 68.0222Z" fill="#787878"/>
<path d="M358.884 67.9495C358.884 63.8756 359.684 60.311 361.283 57.2557C362.931 54.1518 365.185 51.7754 368.045 50.1265C370.953 48.4291 374.225 47.5804 377.861 47.5804C381.642 47.5804 384.889 48.4533 387.604 50.1992C390.366 51.9452 392.354 54.1761 393.566 56.8919V48.1623H398.655V87.8821H393.566V79.0797C392.305 81.7956 390.294 84.0507 387.531 85.8451C384.816 87.5911 381.569 88.464 377.788 88.464C374.201 88.464 370.953 87.6153 368.045 85.9179C365.185 84.2205 362.931 81.8198 361.283 78.716C359.684 75.6121 358.884 72.0233 358.884 67.9495ZM393.566 68.0222C393.566 64.8213 392.911 62.0085 391.603 59.5836C390.294 57.1587 388.5 55.2915 386.222 53.9821C383.992 52.6726 381.52 52.0179 378.806 52.0179C375.995 52.0179 373.474 52.6484 371.244 53.9093C369.015 55.1703 367.245 57.0132 365.937 59.4381C364.676 61.8145 364.046 64.6516 364.046 67.9495C364.046 71.1988 364.676 74.0602 365.937 76.5336C367.245 78.9585 369.015 80.8256 371.244 82.1351C373.474 83.396 375.995 84.0265 378.806 84.0265C381.52 84.0265 383.992 83.3718 386.222 82.0623C388.5 80.7529 390.294 78.8857 391.603 76.4608C392.911 74.0359 393.566 71.2231 393.566 68.0222Z" fill="#787878"/>
<path d="M428.088 36.8138C433.468 36.8138 438.17 37.8808 442.193 40.0147C446.216 42.1486 449.318 45.1555 451.5 49.0353C453.729 52.8666 454.844 57.3042 454.844 62.348C454.844 67.3432 453.729 71.7808 451.5 75.6606C449.318 79.5404 446.192 82.5473 442.12 84.6812C438.097 86.8151 433.42 87.8821 428.088 87.8821H408.965V36.8138H428.088ZM427.288 77.1155C431.99 77.1155 435.649 75.8303 438.267 73.26C440.884 70.6896 442.193 67.0522 442.193 62.348C442.193 57.6437 440.884 53.9821 438.267 51.3632C435.649 48.7443 431.99 47.4349 427.288 47.4349H421.399V77.1155H427.288Z" fill="#787878"/>
<path d="M480.26 88.3913C476.528 88.3913 473.183 87.7851 470.226 86.5726C467.27 85.3602 464.894 83.5658 463.101 81.1894C461.356 78.813 460.435 75.9516 460.338 72.6052H473.571C473.765 74.4967 474.419 75.9516 475.534 76.97C476.649 77.94 478.103 78.425 479.896 78.425C481.738 78.425 483.193 78.0127 484.259 77.1883C485.325 76.3153 485.859 75.1271 485.859 73.6237C485.859 72.3628 485.422 71.32 484.55 70.4956C483.726 69.6711 482.684 68.9922 481.423 68.4587C480.212 67.9252 478.467 67.319 476.188 66.64C472.892 65.6216 470.202 64.6031 468.118 63.5846C466.034 62.5662 464.24 61.0628 462.737 59.0744C461.235 57.0859 460.484 54.4913 460.484 51.2905C460.484 46.5377 462.204 42.8276 465.646 40.1602C469.087 37.4443 473.571 36.0864 479.097 36.0864C484.719 36.0864 489.252 37.4443 492.693 40.1602C496.135 42.8276 497.977 46.5619 498.219 51.3632H484.768C484.671 49.7143 484.065 48.4291 482.95 47.5076C481.835 46.5377 480.405 46.0527 478.66 46.0527C477.158 46.0527 475.946 46.4649 475.025 47.2894C474.104 48.0653 473.644 49.205 473.644 50.7085C473.644 52.3574 474.419 53.6426 475.97 54.5641C477.521 55.4855 479.945 56.4797 483.241 57.5467C486.537 58.6621 489.203 59.7291 491.239 60.7475C493.323 61.766 495.117 63.2452 496.619 65.1851C498.122 67.125 498.873 69.6226 498.873 72.678C498.873 75.5879 498.122 78.231 496.619 80.6074C495.165 82.9838 493.032 84.8752 490.221 86.2816C487.41 87.6881 484.089 88.3913 480.26 88.3913Z" fill="#787878"/>
<path fill-rule="evenodd" clip-rule="evenodd" d="M69.9626 0L0 70L69.9626 140L139.925 70L69.9626 0ZM12.7694 69.7303H69.7633H126.757L69.7633 12.7059L12.7694 69.7303Z" fill="#ADADAD"/>
<path opacity="0.5" fill-rule="evenodd" clip-rule="evenodd" d="M126.757 69.8005H69.7633H12.7694L69.7633 126.825L126.757 69.8005Z" fill="#787878"/>
<path fill-rule="evenodd" clip-rule="evenodd" d="M69.7633 69.8005H12.7694L69.7633 126.825V69.8006V69.8005ZM126.757 69.8006L126.757 69.8005H126.757L126.757 69.8006Z" fill="#787878"/>
<path fill-rule="evenodd" clip-rule="evenodd" d="M69.7633 69.8003H69.7633H126.757L126.757 69.8004L69.7633 126.825V69.8004V69.8003Z" fill="#5A5A5A"/>
</g>
<defs>
<clipPath id="clip0_1_176">
<rect width="498.873" height="140" fill="white"/>
</clipPath>
</defs>
</svg>
